<svg preserveAspectRatio="none" overflow="visible" style="display: block;" width="22" height="22" viewBox="0 0 22 22" fill="none" xmlns="http://www.w3.org/2000/svg">
<g id="check-verified-03" clip-path="url(#clip0_0_192)">
<path id="Icon" d="M8.25 11L10.0833 12.8333L14.2083 8.70833M8.43508 18.8841C8.73551 18.8444 9.03901 18.9259 9.27834 19.1102L10.3813 19.9566C10.7459 20.2367 11.2531 20.2367 11.6167 19.9566L12.7614 19.0776C12.9753 18.9137 13.2451 18.8414 13.512 18.877L14.9439 19.0654C15.3991 19.1255 15.8381 18.8719 16.0143 18.4472L16.5652 17.115C16.6681 16.8655 16.8657 16.6679 17.1152 16.565L18.4473 16.014C18.872 15.8388 19.1256 15.3989 19.0655 14.9436L18.8842 13.5635C18.8445 13.2631 18.926 12.9596 19.1103 12.7202L19.9566 11.6172C20.2367 11.2526 20.2367 10.7454 19.9566 10.3818L19.0777 9.23699C18.9137 9.02311 18.8414 8.75321 18.8771 8.48637L19.0655 7.05437C19.1256 6.5991 18.872 6.16013 18.4473 5.98394L17.1152 5.43293C16.8657 5.33006 16.6681 5.13248 16.5652 4.88295L16.0143 3.55076C15.8391 3.12605 15.3991 2.87245 14.9439 2.93254L13.512 3.12096C13.2451 3.15763 12.9753 3.08531 12.7624 2.92235L11.6177 2.0434C11.2531 1.76331 10.7459 1.76331 10.3823 2.0434L9.2376 2.92235C9.02373 3.08531 8.75384 3.15763 8.48701 3.123L7.0551 2.93458C6.59986 2.87448 6.16091 3.12809 5.98472 3.5528L5.43477 4.88498C5.33089 5.1335 5.13331 5.33108 4.88481 5.43497L3.5527 5.98495C3.12802 6.16115 2.87443 6.60012 2.93451 7.05539L3.12292 8.48738C3.15755 8.75423 3.08524 9.02413 2.92229 9.23699L2.04339 10.3818C1.76332 10.7464 1.76332 11.2536 2.04339 11.6172L2.92229 12.762C3.08626 12.9759 3.15857 13.2458 3.12292 13.5126L2.93451 14.9446C2.87443 15.3999 3.12802 15.8388 3.5527 16.015L4.88481 16.566C5.13433 16.6689 5.33191 16.8665 5.43477 17.116L5.98574 18.4482C6.16091 18.8729 6.60088 19.1265 7.05612 19.0664L8.43508 18.8841Z" stroke="#173F26" stroke-width="2" stroke-linecap="round" stroke-linejoin="round"/>
</g>
<defs>
<clipPath id="clip0_0_192">
<rect width="22" height="22" fill="white"/>
</clipPath>
</defs>
</svg>
